<svg width="750" height="750" viewBox="0 0 750 750" fill="none" xmlns="http://www.w3.org/2000/svg">
<g filter="url(#filter0_d_1122_1246)">
<path d="M572.197 256.411C673.406 314.878 664.029 437.989 565.669 487.851C464.461 546.317 300.369 546.317 199.16 487.851C95.8166 431.362 91.2966 316.204 192.505 257.737C293.714 199.271 470.988 197.945 572.197 256.411Z" fill="url(#paint0_linear_1122_1246)"/>
</g>
<circle cx="211.635" cy="211.635" r="211.635" transform="matrix(0.865901 -0.500215 0.865901 0.500215 15.9023 357.246)" fill="url(#paint1_linear_1122_1246)"/>
<circle cx="211.635" cy="211.635" r="210.135" transform="matrix(0.865901 -0.500215 0.865901 0.500215 15.9023 357.246)" stroke="url(#paint2_linear_1122_1246)" stroke-opacity="0.46" stroke-width="3"/>
<g filter="url(#filter1_d_1122_1246)">
<circle cx="211.635" cy="211.635" r="211.635" transform="matrix(0.865901 -0.500215 0.865901 0.500215 13.207 315.299)" fill="url(#paint3_linear_1122_1246)"/>
</g>
<circle cx="211.635" cy="211.635" r="209.877" transform="matrix(0.865901 -0.500215 0.865901 0.500215 13.207 295.742)" fill="white" fill-opacity="0.5" stroke="url(#paint4_linear_1122_1246)" stroke-width="3.5152"/>
<mask id="path-6-inside-1_1122_1246" fill="white">
<path fill-rule="evenodd" clip-rule="evenodd" d="M121.158 285.514C122.701 272.42 127.211 259.421 134.686 246.881C135.84 246.83 137.073 246.81 138.39 246.817C177.813 247.013 217.25 247.011 256.689 247.009C295.351 247.007 334.017 247.005 372.675 247.189C390.478 247.282 403.458 244.305 414.73 236.335C431.476 224.348 437.411 224.271 454.211 236.335C465.809 244.677 478.897 247.561 497.269 247.189C521.014 246.794 544.794 246.846 568.565 246.898H568.57C586.789 246.938 605.003 246.978 623.191 246.817C623.718 246.817 624.228 246.822 624.721 246.833C632.196 259.358 636.711 272.342 638.267 285.422C616.613 285.277 594.933 285.313 573.245 285.349L573.225 285.349C563.579 285.365 553.93 285.381 544.283 285.381C537.494 285.381 530.703 285.365 523.912 285.346L518.937 285.332H518.935C498.03 285.271 477.124 285.211 456.244 285.52C450.678 285.745 445.1 285.179 440.008 283.873C434.917 282.566 430.468 280.559 427.059 278.031C403.484 262.059 402.21 261.873 377.878 277.178C367.716 283.598 357.121 285.613 342.651 285.536C269.506 285.195 196.343 285.195 123.161 285.536C122.461 285.536 121.794 285.529 121.158 285.514ZM150.452 365.636C139.171 353.296 131.083 340.237 126.187 326.866C149.755 327.021 173.324 327.002 196.906 326.983C223.57 326.962 250.252 326.941 276.971 327.17C294.26 327.31 307.619 324.519 317.943 316.502L318.188 316.309C322.04 313.267 326.041 310.109 332.251 308.423C340.76 306.113 347.967 308.051 352.194 312.052C366.556 325.557 387.801 327.558 413.516 327.294C457.779 326.807 502.043 326.858 546.259 326.909H546.302H546.316H546.322H546.327H546.332C575.176 326.943 603.999 326.976 632.789 326.86C632.945 326.86 633.099 326.86 633.251 326.861C628.201 340.656 619.753 354.118 607.906 366.801C602.248 366.979 596.025 366.567 589.811 366.155C584.432 365.798 579.06 365.442 574.069 365.47C552.137 365.696 530.161 365.659 508.185 365.622H508.181C499.938 365.608 491.695 365.594 483.455 365.594C477.027 365.594 470.599 365.588 464.169 365.579L448.753 365.554C418.8 365.501 388.832 365.448 358.807 365.75C346.206 365.889 337.128 363.734 329.786 358.089C326.399 355.651 322.781 353.322 318.946 351.112C309.354 345.219 299.409 344.429 291.658 350.739C275.4 363.92 254.074 367.005 227.329 365.858C206.134 364.945 184.778 365.214 163.433 365.482H163.433H163.433H163.432H163.431H163.408L163.397 365.482H163.396H163.395H163.394C159.079 365.537 154.765 365.591 150.452 365.636ZM559.792 403.414C458.355 460.067 296.618 459.465 196.463 401.607C196.364 401.55 196.264 401.492 196.165 401.435C202.255 399.527 206.738 396.529 211.19 393.551L211.193 393.549C212.514 392.665 213.833 391.783 215.19 390.932C229.444 381.876 236.868 381.302 249.523 391.009C262.421 401.026 277.84 403.864 299.165 403.693C363.483 403.206 427.815 403.282 492.14 403.358H492.144H492.148H492.152C514.7 403.385 537.247 403.411 559.792 403.414ZM586.697 205.616C583.398 205.604 580.099 205.651 576.804 205.757C549.571 207.633 526.294 204.966 510.496 190.251C504.536 184.637 492.503 184.591 486.407 189.91C468.36 205.664 442.346 206.253 413.244 206.005C354.042 205.504 294.814 205.594 235.519 205.685H235.488C214.52 205.718 193.544 205.75 172.557 205.756C179.774 200.226 187.743 194.919 196.463 189.881C297.672 131.415 461.764 131.415 562.973 189.881C571.619 194.876 579.527 200.136 586.697 205.616Z"/>
</mask>
<path fill-rule="evenodd" clip-rule="evenodd" d="M121.158 285.514C122.701 272.42 127.211 259.421 134.686 246.881C135.84 246.83 137.073 246.81 138.39 246.817C177.813 247.013 217.25 247.011 256.689 247.009C295.351 247.007 334.017 247.005 372.675 247.189C390.478 247.282 403.458 244.305 414.73 236.335C431.476 224.348 437.411 224.271 454.211 236.335C465.809 244.677 478.897 247.561 497.269 247.189C521.014 246.794 544.794 246.846 568.565 246.898H568.57C586.789 246.938 605.003 246.978 623.191 246.817C623.718 246.817 624.228 246.822 624.721 246.833C632.196 259.358 636.711 272.342 638.267 285.422C616.613 285.277 594.933 285.313 573.245 285.349L573.225 285.349C563.579 285.365 553.93 285.381 544.283 285.381C537.494 285.381 530.703 285.365 523.912 285.346L518.937 285.332H518.935C498.03 285.271 477.124 285.211 456.244 285.52C450.678 285.745 445.1 285.179 440.008 283.873C434.917 282.566 430.468 280.559 427.059 278.031C403.484 262.059 402.21 261.873 377.878 277.178C367.716 283.598 357.121 285.613 342.651 285.536C269.506 285.195 196.343 285.195 123.161 285.536C122.461 285.536 121.794 285.529 121.158 285.514ZM150.452 365.636C139.171 353.296 131.083 340.237 126.187 326.866C149.755 327.021 173.324 327.002 196.906 326.983C223.57 326.962 250.252 326.941 276.971 327.17C294.26 327.31 307.619 324.519 317.943 316.502L318.188 316.309C322.04 313.267 326.041 310.109 332.251 308.423C340.76 306.113 347.967 308.051 352.194 312.052C366.556 325.557 387.801 327.558 413.516 327.294C457.779 326.807 502.043 326.858 546.259 326.909H546.302H546.316H546.322H546.327H546.332C575.176 326.943 603.999 326.976 632.789 326.86C632.945 326.86 633.099 326.86 633.251 326.861C628.201 340.656 619.753 354.118 607.906 366.801C602.248 366.979 596.025 366.567 589.811 366.155C584.432 365.798 579.06 365.442 574.069 365.47C552.137 365.696 530.161 365.659 508.185 365.622H508.181C499.938 365.608 491.695 365.594 483.455 365.594C477.027 365.594 470.599 365.588 464.169 365.579L448.753 365.554C418.8 365.501 388.832 365.448 358.807 365.75C346.206 365.889 337.128 363.734 329.786 358.089C326.399 355.651 322.781 353.322 318.946 351.112C309.354 345.219 299.409 344.429 291.658 350.739C275.4 363.92 254.074 367.005 227.329 365.858C206.134 364.945 184.778 365.214 163.433 365.482H163.433H163.433H163.432H163.431H163.408L163.397 365.482H163.396H163.395H163.394C159.079 365.537 154.765 365.591 150.452 365.636ZM559.792 403.414C458.355 460.067 296.618 459.465 196.463 401.607C196.364 401.55 196.264 401.492 196.165 401.435C202.255 399.527 206.738 396.529 211.19 393.551L211.193 393.549C212.514 392.665 213.833 391.783 215.19 390.932C229.444 381.876 236.868 381.302 249.523 391.009C262.421 401.026 277.84 403.864 299.165 403.693C363.483 403.206 427.815 403.282 492.14 403.358H492.144H492.148H492.152C514.7 403.385 537.247 403.411 559.792 403.414ZM586.697 205.616C583.398 205.604 580.099 205.651 576.804 205.757C549.571 207.633 526.294 204.966 510.496 190.251C504.536 184.637 492.503 184.591 486.407 189.91C468.36 205.664 442.346 206.253 413.244 206.005C354.042 205.504 294.814 205.594 235.519 205.685H235.488C214.52 205.718 193.544 205.75 172.557 205.756C179.774 200.226 187.743 194.919 196.463 189.881C297.672 131.415 461.764 131.415 562.973 189.881C571.619 194.876 579.527 200.136 586.697 205.616Z" fill="url(#paint5_linear_1122_1246)"/>
<path d="M121.158 285.514L119.172 285.28L118.915 287.464L121.113 287.514L121.158 285.514ZM134.686 246.881L134.6 244.882L133.521 244.929L132.968 245.856L134.686 246.881ZM138.39 246.817L138.38 248.817H138.38L138.39 246.817ZM256.689 247.009L256.69 249.009L256.689 247.009ZM372.675 247.189L372.685 245.189L372.684 245.189L372.675 247.189ZM414.73 236.335L415.884 237.968L415.894 237.961L414.73 236.335ZM454.211 236.335L455.379 234.711L455.378 234.71L454.211 236.335ZM497.269 247.189L497.236 245.189L497.229 245.189L497.269 247.189ZM568.565 246.898L568.56 248.898H568.565V246.898ZM568.57 246.898L568.574 244.898H568.57V246.898ZM623.191 246.817V244.817H623.182L623.174 244.817L623.191 246.817ZM624.721 246.833L626.438 245.808L625.871 244.857L624.764 244.833L624.721 246.833ZM638.267 285.422L638.253 287.422L640.52 287.437L640.253 285.186L638.267 285.422ZM573.245 285.349L573.242 283.349H573.24L573.245 285.349ZM573.225 285.349L573.228 287.349L573.23 287.349L573.225 285.349ZM523.912 285.346L523.906 287.346H523.906L523.912 285.346ZM518.937 285.332L518.943 283.332H518.937V285.332ZM518.935 285.332L518.929 287.332H518.935V285.332ZM456.244 285.52L456.214 283.52L456.188 283.521L456.163 283.522L456.244 285.52ZM440.008 283.873L439.51 285.81L439.51 285.81L440.008 283.873ZM427.059 278.031L428.251 276.424L428.216 276.399L428.181 276.375L427.059 278.031ZM377.878 277.178L376.813 275.485L376.809 275.487L377.878 277.178ZM342.651 285.536L342.662 283.536L342.66 283.536L342.651 285.536ZM123.161 285.536V287.536L123.171 287.536L123.161 285.536ZM150.452 365.636L148.976 366.985L149.579 367.645L150.473 367.635L150.452 365.636ZM126.187 326.866L126.2 324.866L123.318 324.848L124.309 327.554L126.187 326.866ZM196.906 326.983L196.905 324.983L196.906 326.983ZM276.971 327.17L276.954 329.17H276.955L276.971 327.17ZM317.943 316.502L319.17 318.082L319.179 318.074L317.943 316.502ZM318.188 316.309L319.424 317.882L319.427 317.879L318.188 316.309ZM332.251 308.423L332.775 310.353L332.775 310.353L332.251 308.423ZM352.194 312.052L350.82 313.504L350.824 313.509L352.194 312.052ZM413.516 327.294L413.537 329.294L413.538 329.294L413.516 327.294ZM546.259 326.909L546.256 328.909H546.259V326.909ZM546.332 326.909L546.335 324.909H546.332V326.909ZM632.789 326.86V324.86L632.781 324.86L632.789 326.86ZM633.251 326.861L635.129 327.549L636.108 324.873L633.259 324.861L633.251 326.861ZM607.906 366.801L607.969 368.8L608.8 368.774L609.368 368.167L607.906 366.801ZM589.811 366.155L589.679 368.151L589.811 366.155ZM574.069 365.47L574.058 363.47L574.048 363.471L574.069 365.47ZM508.185 365.622L508.188 363.622H508.185V365.622ZM508.181 365.622L508.178 367.622H508.181V365.622ZM464.169 365.579L464.166 367.579L464.166 367.579L464.169 365.579ZM448.753 365.554L448.75 367.554H448.75L448.753 365.554ZM358.807 365.75L358.786 363.75L358.784 363.75L358.807 365.75ZM329.786 358.089L331.004 356.504L330.98 356.485L330.954 356.466L329.786 358.089ZM318.946 351.112L317.899 352.816L317.923 352.831L317.947 352.845L318.946 351.112ZM291.658 350.739L292.918 352.293L292.921 352.29L291.658 350.739ZM227.329 365.858L227.243 367.856L227.243 367.856L227.329 365.858ZM163.433 365.482V367.482H163.446L163.458 367.482L163.433 365.482ZM163.408 365.482V363.482H163.395L163.382 363.482L163.408 365.482ZM163.397 365.482V367.482H163.41L163.423 367.482L163.397 365.482ZM163.394 365.482V363.482H163.382L163.369 363.482L163.394 365.482ZM559.792 403.414L560.767 405.16L567.473 401.414L559.792 401.414L559.792 403.414ZM196.463 401.607L195.462 403.339L195.462 403.339L196.463 401.607ZM196.165 401.435L195.567 399.526L191.229 400.886L195.162 403.165L196.165 401.435ZM211.19 393.551L210.085 391.884L210.078 391.889L211.19 393.551ZM211.193 393.549L212.297 395.217L212.305 395.211L211.193 393.549ZM215.19 390.932L216.253 392.626L216.263 392.62L215.19 390.932ZM249.523 391.009L250.75 389.429L250.74 389.422L249.523 391.009ZM299.165 403.693L299.15 401.693L299.149 401.693L299.165 403.693ZM492.14 403.358L492.138 405.358H492.14V403.358ZM492.152 403.358L492.154 401.358H492.152V403.358ZM586.697 205.616L586.689 207.616L592.635 207.638L587.911 204.027L586.697 205.616ZM576.804 205.757L576.74 203.758L576.703 203.759L576.666 203.762L576.804 205.757ZM510.496 190.251L509.125 191.707L509.133 191.714L510.496 190.251ZM486.407 189.91L485.092 188.402L485.092 188.403L486.407 189.91ZM413.244 206.005L413.261 204.005L413.261 204.005L413.244 206.005ZM235.519 205.685V207.685L235.522 207.685L235.519 205.685ZM235.488 205.685V203.685L235.485 203.685L235.488 205.685ZM172.557 205.756L171.34 204.168L166.656 207.758L172.557 207.756L172.557 205.756ZM196.463 189.881L195.462 188.149L196.463 189.881ZM562.973 189.881L563.973 188.149L562.973 189.881ZM123.144 285.748C124.652 272.956 129.06 260.224 136.404 247.905L132.968 245.856C125.361 258.617 120.751 271.884 119.172 285.28L123.144 285.748ZM138.401 244.817C137.057 244.81 135.791 244.831 134.6 244.882L134.773 248.879C135.89 248.83 137.09 248.81 138.38 248.817L138.401 244.817ZM256.689 245.009C217.249 245.011 177.817 245.013 138.4 244.817L138.38 248.817C177.809 249.013 217.251 249.011 256.69 249.009L256.689 245.009ZM372.684 245.189C334.021 245.005 295.35 245.007 256.689 245.009L256.69 249.009C295.352 249.007 334.013 249.005 372.665 249.189L372.684 245.189ZM413.575 234.702C402.766 242.345 390.252 245.281 372.685 245.189L372.664 249.189C390.705 249.283 404.15 246.265 415.884 237.968L413.575 234.702ZM455.378 234.71C446.993 228.689 440.835 225.305 434.447 225.316C428.062 225.327 421.919 228.73 413.566 234.708L415.894 237.961C424.287 231.953 429.484 229.324 434.454 229.316C439.42 229.307 444.629 231.916 453.045 237.959L455.378 234.71ZM497.229 245.189C479.1 245.557 466.498 242.709 455.379 234.711L453.044 237.958C465.12 246.645 478.694 249.566 497.31 249.189L497.229 245.189ZM568.569 244.898C544.801 244.846 521.002 244.794 497.236 245.189L497.302 249.189C521.025 248.794 544.786 248.846 568.56 248.898L568.569 244.898ZM568.57 244.898H568.565V248.898H568.57V244.898ZM623.174 244.817C604.998 244.978 586.795 244.938 568.574 244.898L568.566 248.898C586.783 248.938 605.007 248.978 623.209 248.817L623.174 244.817ZM624.764 244.833C624.255 244.822 623.731 244.817 623.191 244.817V248.817C623.705 248.817 624.2 248.822 624.678 248.832L624.764 244.833ZM623.003 247.858C630.347 260.163 634.761 272.88 636.281 285.658L640.253 285.186C638.661 271.804 634.045 258.554 626.438 245.808L623.003 247.858ZM573.248 287.349C594.938 287.313 616.609 287.277 638.253 287.422L638.28 283.422C616.616 283.277 594.929 283.313 573.242 283.349L573.248 287.349ZM573.23 287.349L573.25 287.349L573.24 283.349L573.221 283.349L573.23 287.349ZM544.283 287.381C553.932 287.381 563.583 287.365 573.228 287.349L573.222 283.349C563.576 283.365 553.929 283.381 544.283 283.381V287.381ZM523.906 287.346C530.698 287.365 537.492 287.381 544.283 287.381V283.381C537.497 283.381 530.708 283.365 523.917 283.346L523.906 287.346ZM518.931 287.332L523.906 287.346L523.918 283.346L518.943 283.332L518.931 287.332ZM518.935 287.332H518.937V283.332H518.935V287.332ZM456.273 287.52C477.133 287.211 498.021 287.271 518.929 287.332L518.941 283.332C498.039 283.271 477.115 283.211 456.214 283.52L456.273 287.52ZM439.51 285.81C444.802 287.168 450.575 287.751 456.324 287.519L456.163 283.522C450.78 283.74 445.397 283.191 440.505 281.936L439.51 285.81ZM425.868 279.637C429.528 282.352 434.227 284.454 439.51 285.81L440.505 281.936C435.607 280.678 431.409 278.767 428.251 276.424L425.868 279.637ZM378.942 278.871C385.047 275.031 389.591 272.237 393.381 270.41C397.146 268.595 399.997 267.82 402.712 267.875C405.426 267.931 408.237 268.823 411.913 270.774C415.614 272.738 420.019 275.677 425.938 279.687L428.181 276.375C422.312 272.399 417.717 269.326 413.788 267.241C409.835 265.143 406.386 263.95 402.794 263.876C399.201 263.802 395.698 264.852 391.644 266.807C387.614 268.75 382.874 271.672 376.813 275.485L378.942 278.871ZM342.64 287.536C357.32 287.614 368.341 285.568 378.946 278.869L376.809 275.487C367.09 281.627 356.921 283.612 342.662 283.536L342.64 287.536ZM123.171 287.536C196.346 287.195 269.503 287.195 342.642 287.536L342.66 283.536C269.509 283.195 196.34 283.195 123.152 283.536L123.171 287.536ZM121.113 287.514C121.765 287.529 122.448 287.536 123.161 287.536V283.536C122.475 283.536 121.822 283.529 121.204 283.515L121.113 287.514ZM151.928 364.286C140.8 352.113 132.86 339.275 128.065 326.179L124.309 327.554C129.305 341.2 137.542 354.478 148.976 366.985L151.928 364.286ZM126.174 328.866C149.75 329.021 173.327 329.002 196.908 328.983L196.905 324.983C173.321 325.002 149.759 325.021 126.2 324.866L126.174 328.866ZM196.908 328.983C223.573 328.962 250.246 328.941 276.954 329.17L276.988 325.17C250.258 324.941 223.567 324.962 196.905 324.983L196.908 328.983ZM276.955 329.17C294.431 329.311 308.327 326.501 319.17 318.082L316.716 314.922C306.911 322.536 294.089 325.308 276.987 325.17L276.955 329.17ZM319.179 318.074L319.424 317.882L316.952 314.737L316.707 314.93L319.179 318.074ZM319.427 317.879C323.278 314.838 326.997 311.922 332.775 310.353L331.727 306.493C325.085 308.296 320.802 311.696 316.948 314.74L319.427 317.879ZM332.775 310.353C340.746 308.189 347.193 310.072 350.82 313.504L353.569 310.599C348.741 306.03 340.773 304.037 331.727 306.493L332.775 310.353ZM350.824 313.509C365.837 327.627 387.88 329.557 413.537 329.294L413.496 325.294C387.723 325.559 367.275 323.488 353.564 310.595L350.824 313.509ZM413.538 329.294C457.787 328.807 502.038 328.858 546.256 328.909L546.261 324.909C502.047 324.858 457.772 324.806 413.494 325.294L413.538 329.294ZM546.259 328.909H546.302V324.909H546.259V328.909ZM546.302 328.909H546.316V324.909H546.302V328.909ZM546.316 328.909H546.322V324.909H546.316V328.909ZM546.322 328.909H546.327V324.909H546.322V328.909ZM546.327 328.909H546.332V324.909H546.327V328.909ZM546.33 328.909C575.173 328.943 604.001 328.976 632.797 328.86L632.781 324.86C603.997 324.976 575.179 324.943 546.335 324.909L546.33 328.909ZM632.789 328.86C632.942 328.86 633.093 328.86 633.242 328.861L633.259 324.861C633.104 324.86 632.947 324.86 632.789 324.86V328.86ZM631.373 326.173C626.427 339.684 618.133 352.922 606.445 365.436L609.368 368.167C621.372 355.314 629.975 341.627 635.129 327.549L631.373 326.173ZM607.844 364.802C602.302 364.977 596.18 364.573 589.944 364.159L589.679 368.151C595.869 368.561 602.195 368.982 607.969 368.8L607.844 364.802ZM589.944 364.159C584.58 363.804 579.134 363.442 574.058 363.471L574.08 367.47C578.986 367.443 584.284 367.793 589.679 368.151L589.944 364.159ZM574.048 363.471C552.13 363.696 530.166 363.659 508.188 363.622L508.182 367.622C530.155 367.659 552.143 367.696 574.089 367.47L574.048 363.471ZM508.185 363.622H508.181V367.622H508.185V363.622ZM508.185 363.622C499.942 363.608 491.697 363.594 483.455 363.594V367.594C491.693 367.594 499.935 367.608 508.178 367.622L508.185 363.622ZM483.455 363.594C477.028 363.594 470.601 363.588 464.172 363.579L464.166 367.579C470.596 367.588 477.026 367.594 483.455 367.594V363.594ZM464.173 363.579L448.757 363.554L448.75 367.554L464.166 367.579L464.173 363.579ZM448.757 363.554C418.806 363.501 388.826 363.448 358.786 363.75L358.827 367.749C388.838 367.448 418.795 367.501 448.75 367.554L448.757 363.554ZM358.784 363.75C346.415 363.887 337.851 361.767 331.004 356.504L328.567 359.675C336.406 365.701 345.997 367.892 358.829 367.749L358.784 363.75ZM330.954 356.466C327.51 353.986 323.835 351.62 319.944 349.379L317.947 352.845C321.727 355.023 325.288 357.316 328.617 359.712L330.954 356.466ZM319.993 349.408C309.966 343.248 299.035 342.154 290.395 349.189L292.921 352.29C299.783 346.703 308.741 347.19 317.899 352.816L319.993 349.408ZM290.399 349.186C274.727 361.891 254.03 365.002 227.415 363.86L227.243 367.856C254.119 369.009 276.073 365.949 292.918 352.293L290.399 349.186ZM227.415 363.86C206.155 362.944 184.743 363.214 163.408 363.482L163.458 367.482C184.812 367.214 206.113 366.946 227.243 367.856L227.415 363.86ZM163.433 363.482H163.433V367.482H163.433V363.482ZM163.433 363.482H163.433V367.482H163.433V363.482ZM163.433 363.482H163.432V367.482H163.433V363.482ZM163.432 363.482H163.431V367.482H163.432V363.482ZM163.431 363.482H163.408V367.482H163.431V363.482ZM163.382 363.482L163.371 363.482L163.423 367.482L163.434 367.482L163.382 363.482ZM163.397 363.482H163.396V367.482H163.397V363.482ZM163.396 363.482H163.395V367.482H163.396V363.482ZM163.395 363.482H163.394V367.482H163.395V363.482ZM163.369 363.482C159.054 363.537 154.741 363.591 150.431 363.636L150.473 367.635C154.788 367.591 159.105 367.536 163.42 367.482L163.369 363.482ZM558.817 401.668C508.467 429.788 443.032 443.752 377.656 443.452C312.279 443.152 247.169 428.589 197.463 399.875L195.462 403.339C245.912 432.483 311.748 447.15 377.638 447.452C443.528 447.754 509.68 433.693 560.767 405.16L558.817 401.668ZM197.463 399.875C197.365 399.818 197.266 399.761 197.168 399.704L195.162 403.165C195.262 403.223 195.362 403.281 195.462 403.339L197.463 399.875ZM210.078 391.889C205.615 394.874 201.35 397.715 195.567 399.526L196.763 403.343C203.161 401.339 207.861 398.184 212.301 395.214L210.078 391.889ZM210.089 391.882L210.085 391.884L212.294 395.219L212.297 395.217L210.089 391.882ZM214.127 389.237C212.741 390.107 211.398 391.005 210.081 391.887L212.305 395.211C213.63 394.325 214.925 393.459 216.253 392.626L214.127 389.237ZM250.74 389.422C244.279 384.466 238.816 381.865 232.932 381.934C227.119 382.004 221.295 384.684 214.118 389.243L216.263 392.62C223.339 388.124 228.354 385.989 232.98 385.934C237.535 385.88 242.113 387.846 248.306 392.596L250.74 389.422ZM299.149 401.693C277.98 401.862 263.115 399.033 250.75 389.429L248.296 392.589C261.727 403.019 277.7 405.865 299.181 405.693L299.149 401.693ZM492.142 401.358C427.819 401.282 363.478 401.206 299.15 401.693L299.181 405.693C363.488 405.206 427.811 405.282 492.138 405.358L492.142 401.358ZM492.144 401.358H492.14V405.358H492.144V401.358ZM492.148 401.358H492.144V405.358H492.148V401.358ZM492.152 401.358H492.148V405.358H492.152V401.358ZM559.792 401.414C537.249 401.411 514.703 401.385 492.154 401.358L492.15 405.358C514.698 405.385 537.246 405.411 559.792 405.414L559.792 401.414ZM586.704 203.616C583.382 203.604 580.059 203.651 576.74 203.758L576.868 207.756C580.139 207.651 583.414 207.604 586.689 207.616L586.704 203.616ZM576.666 203.762C549.514 205.632 527.003 202.893 511.86 188.787L509.133 191.714C525.585 207.039 549.628 209.634 576.941 207.752L576.666 203.762ZM511.867 188.795C508.422 185.55 503.386 184.033 498.524 183.981C493.662 183.929 488.606 185.337 485.092 188.402L487.722 191.417C490.304 189.164 494.312 187.936 498.481 187.98C502.65 188.025 506.61 189.338 509.125 191.707L511.867 188.795ZM485.092 188.403C476.436 195.959 465.81 199.938 453.639 201.986C441.439 204.038 427.827 204.129 413.261 204.005L413.227 208.005C427.763 208.129 441.709 208.049 454.303 205.93C466.926 203.807 478.331 199.615 487.722 191.416L485.092 188.403ZM413.261 204.005C354.047 203.504 294.81 203.595 235.516 203.685L235.522 207.685C294.819 207.594 354.037 207.504 413.227 208.005L413.261 204.005ZM235.519 203.685H235.488V207.685H235.519V203.685ZM235.485 203.685C214.517 203.718 193.542 203.75 172.556 203.756L172.557 207.756C193.546 207.75 214.523 207.718 235.491 207.685L235.485 203.685ZM173.773 207.343C180.917 201.87 188.813 196.61 197.463 191.613L195.462 188.149C186.673 193.227 178.631 198.582 171.34 204.168L173.773 207.343ZM197.463 191.613C247.692 162.597 313.651 148.031 379.718 148.031C445.785 148.031 511.744 162.597 561.972 191.613L563.973 188.149C512.993 158.699 446.301 144.031 379.718 144.031C313.134 144.031 246.443 158.699 195.462 188.149L197.463 191.613ZM561.972 191.613C570.55 196.568 578.386 201.781 585.482 207.205L587.911 204.027C580.669 198.492 572.689 193.184 563.973 188.149L561.972 191.613Z" fill="url(#paint6_linear_1122_1246)" fill-opacity="0.46" mask="url(#path-6-inside-1_1122_1246)"/>
<g filter="url(#filter2_b_1122_1246)">
<path d="M172.553 205.755C155.957 218.471 143.334 232.368 134.683 246.88C135.837 246.83 137.07 246.809 138.387 246.816C177.809 247.012 217.246 247.01 256.686 247.008C295.348 247.006 334.014 247.004 372.672 247.188C390.475 247.281 403.455 244.304 414.726 236.334C431.473 224.348 437.408 224.27 454.208 236.334C465.806 244.676 478.894 247.56 497.266 247.188C521.01 246.793 544.79 246.845 568.561 246.898H568.566C586.785 246.938 604.999 246.978 623.188 246.816C623.715 246.816 624.224 246.821 624.718 246.832C616.036 232.284 603.361 218.356 586.694 205.616C583.395 205.603 580.096 205.65 576.8 205.756C549.568 207.632 526.291 204.965 510.493 190.25C504.532 184.637 492.5 184.59 486.404 189.909C468.357 205.663 442.343 206.252 413.24 206.004C354.039 205.503 294.811 205.594 235.516 205.685H235.484C214.516 205.717 193.54 205.749 172.553 205.755Z" fill="url(#paint7_linear_1122_1246)"/>
<path d="M638.263 285.421C616.609 285.276 594.93 285.312 573.242 285.348C563.589 285.364 553.934 285.38 544.28 285.38C537.491 285.38 530.7 285.364 523.909 285.345L518.934 285.331C498.028 285.271 477.121 285.21 456.24 285.519C450.674 285.745 445.096 285.179 440.004 283.872C434.913 282.565 430.465 280.558 427.056 278.03C403.481 262.059 402.207 261.873 377.874 277.177C367.712 283.597 357.117 285.612 342.648 285.535C269.503 285.194 196.34 285.194 123.158 285.535C122.458 285.535 121.791 285.528 121.155 285.513C119.603 298.681 118.451 328.27 126.184 346.759C126.184 346.759 125.948 326.222 126.183 326.866C149.751 327.02 173.321 327.001 196.903 326.983C223.567 326.962 250.249 326.941 276.968 327.169C294.257 327.309 307.616 324.518 317.94 316.501L318.184 316.309C322.037 313.266 326.038 310.108 332.248 308.422C340.756 306.112 347.964 308.05 352.191 312.051C366.553 325.557 387.798 327.557 413.513 327.293C457.776 326.806 502.039 326.857 546.255 326.908H546.32C575.167 326.942 603.993 326.976 632.785 326.859C632.785 334.592 632.785 347.404 632.785 347.404C639.683 331.557 639.346 314.362 638.263 306.065C639.08 299.192 639.08 292.294 638.263 285.421Z" fill="url(#paint8_linear_1122_1246)"/>
<path d="M608.769 385.418V365.47C586.836 365.695 530.155 365.658 508.178 365.621C499.935 365.607 491.692 365.594 483.452 365.594C477.023 365.594 470.596 365.587 464.166 365.578L448.75 365.553C418.797 365.5 388.829 365.447 358.803 365.749C346.203 365.888 337.125 363.733 329.782 358.089C326.396 355.65 322.778 353.321 318.943 351.111C309.351 345.219 299.406 344.428 291.655 350.739C275.397 363.919 254.071 367.005 227.326 365.857C206.131 364.945 184.774 365.213 163.429 365.481H163.404L163.394 365.481C159.078 365.536 154.762 365.59 150.449 365.635C151.269 366.532 149.595 384.971 150.449 385.86C161.02 396.87 176.147 409.187 195.605 420.735L196.162 401.434C202.252 399.526 206.735 396.528 211.186 393.551L211.19 393.548C212.511 392.664 213.83 391.782 215.187 390.931C229.441 381.875 236.865 381.301 249.52 391.008C262.418 401.025 277.837 403.863 299.162 403.692C363.48 403.205 427.811 403.281 492.137 403.357H492.149C514.697 403.384 537.244 403.41 559.788 403.413V422.927C576.171 415.088 597.313 398.314 608.769 385.418Z" fill="url(#paint9_linear_1122_1246)"/>
<path d="M621.571 245.072C603.926 245.218 586.256 245.179 568.57 245.14H568.566L568.565 245.14L568.561 245.14L568.559 245.14C544.793 245.088 520.999 245.036 497.237 245.431L497.23 245.431C479.072 245.799 466.411 242.946 455.234 234.907L455.233 234.906C446.847 228.884 440.746 225.547 434.444 225.558C428.147 225.568 422.062 228.923 413.709 234.901C402.845 242.582 390.274 245.523 372.681 245.431L372.68 245.431C334.018 245.246 295.348 245.248 256.688 245.25H256.686C217.246 245.252 177.813 245.254 138.396 245.059C138.219 245.058 138.042 245.057 137.867 245.057C146.228 231.881 157.977 219.213 173.151 207.512C193.939 207.506 214.717 207.474 235.486 207.442C235.486 207.442 235.487 207.442 235.487 207.442L235.516 207.442L235.519 207.442C294.815 207.351 354.034 207.261 413.225 207.762C427.764 207.886 441.69 207.805 454.26 205.691C466.855 203.572 478.212 199.392 487.559 191.233C490.198 188.931 494.27 187.692 498.48 187.737C502.691 187.782 506.716 189.108 509.288 191.529L509.295 191.536C525.662 206.781 549.599 209.389 576.889 207.512C579.955 207.414 583.025 207.367 586.095 207.372C601.363 219.116 613.176 231.838 621.571 245.072ZM439.567 285.574L440.004 283.872L123.158 285.535C196.34 285.194 269.503 285.194 342.648 285.535L342.638 287.292C342.639 287.292 342.639 287.292 342.639 287.292C357.293 287.371 368.263 285.328 378.813 278.663C384.914 274.826 389.469 272.025 393.273 270.191C397.055 268.367 399.946 267.575 402.713 267.632C405.481 267.689 408.331 268.599 412.024 270.559C415.732 272.527 420.14 275.467 426.04 279.464C429.665 282.145 434.322 284.228 439.567 285.574ZM607.012 384.747C596.185 396.767 577.08 412.036 561.546 420.086V403.413V401.655L559.788 401.655C537.262 401.653 514.732 401.626 492.201 401.6L492.151 401.599H492.149H492.139C427.815 401.523 363.475 401.447 299.149 401.935L299.148 401.935C277.96 402.104 263.028 399.273 250.598 389.62L250.589 389.614C244.144 384.67 238.736 382.107 232.932 382.176C227.193 382.244 221.419 384.89 214.25 389.443C212.869 390.31 211.53 391.206 210.212 392.088L210.212 392.088L210.209 392.09C210.209 392.09 210.209 392.09 210.208 392.09C205.747 395.074 201.456 397.934 195.637 399.757L194.441 400.131L194.405 401.383L193.935 417.68C176.014 406.768 161.981 395.271 152.015 384.953C152.007 384.874 151.999 384.778 151.991 384.661C151.958 384.139 151.95 383.395 151.961 382.474C151.985 380.638 152.087 378.251 152.192 375.826L152.199 375.67C152.301 373.314 152.404 370.933 152.432 369.075C152.441 368.457 152.443 367.88 152.432 367.371C156.093 367.331 159.754 367.285 163.415 367.239L163.416 367.239L163.429 367.239H163.44L163.451 367.239C184.804 366.97 206.112 366.703 227.25 367.613L227.25 367.613C254.11 368.766 275.988 365.702 292.762 352.104L292.765 352.102C299.734 346.427 308.812 346.951 318.023 352.609L318.044 352.621L318.065 352.634C321.844 354.811 325.404 357.103 328.734 359.499C336.508 365.466 346.031 367.648 358.823 367.506C388.835 367.204 418.793 367.257 448.747 367.31L464.163 367.336C470.594 367.345 477.022 367.351 483.452 367.351C491.69 367.351 499.932 367.365 508.175 367.379C529.579 367.415 583.925 367.451 607.012 367.244V384.747ZM249.52 391.008C262.418 401.025 277.837 403.863 299.162 403.692L215.187 390.931C229.441 381.875 236.865 381.301 249.52 391.008Z" stroke="url(#paint10_linear_1122_1246)" stroke-width="3.5152"/>
</g>
<defs>
<filter id="filter0_d_1122_1246" x="28.2634" y="213.219" width="706.431" height="522.794" filterUnits="userSpaceOnUse" color-interpolation-filters="sRGB">
<feFlood flood-opacity="0" result="BackgroundImageFix"/>
<feColorMatrix in="SourceAlpha" type="matrix" values="0 0 0 0 0 0 0 0 0 0 0 0 0 0 0 0 0 0 127 0" result="hardAlpha"/>
<feOffset dy="113.506"/>
<feGaussianBlur stdDeviation="45.4025"/>
<feComposite in2="hardAlpha" operator="out"/>
<feColorMatrix type="matrix" values="0 0 0 0 0 0 0 0 0 0 0 0 0 0 0 0 0 0 0.37 0"/>
<feBlend mode="normal" in2="BackgroundImageFix" result="effect1_dropShadow_1122_1246"/>
<feBlend mode="normal" in="SourceGraphic" in2="effect1_dropShadow_1122_1246" result="shape"/>
</filter>
<filter id="filter1_d_1122_1246" x="100.556" y="165.586" width="558.323" height="358.426" filterUnits="userSpaceOnUse" color-interpolation-filters="sRGB">
<feFlood flood-opacity="0" result="BackgroundImageFix"/>
<feColorMatrix in="SourceAlpha" type="matrix" values="0 0 0 0 0 0 0 0 0 0 0 0 0 0 0 0 0 0 127 0" result="hardAlpha"/>
<feOffset dy="39"/>
<feGaussianBlur stdDeviation="10"/>
<feComposite in2="hardAlpha" operator="out"/>
<feColorMatrix type="matrix" values="0 0 0 0 0 0 0 0 0 0 0 0 0 0 0 0 0 0 0.34 0"/>
<feBlend mode="normal" in2="BackgroundImageFix" result="effect1_dropShadow_1122_1246"/>
<feBlend mode="normal" in="SourceGraphic" in2="effect1_dropShadow_1122_1246" result="shape"/>
</filter>
<filter id="filter2_b_1122_1246" x="111.624" y="177.579" width="535.652" height="253.747" filterUnits="userSpaceOnUse" color-interpolation-filters="sRGB">
<feFlood flood-opacity="0" result="BackgroundImageFix"/>
<feGaussianBlur in="BackgroundImageFix" stdDeviation="4.2"/>
<feComposite in2="SourceAlpha" operator="in" result="effect1_backgroundBlur_1122_1246"/>
<feBlend mode="normal" in="SourceGraphic" in2="effect1_backgroundBlur_1122_1246" result="shape"/>
</filter>
<linearGradient id="paint0_linear_1122_1246" x1="381.479" y1="213.219" x2="395.67" y2="564.591" gradientUnits="userSpaceOnUse">
<stop stop-color="#171414"/>
<stop offset="1" stop-color="#151A1D"/>
</linearGradient>
<linearGradient id="paint1_linear_1122_1246" x1="211.635" y1="0" x2="248.292" y2="423.979" gradientUnits="userSpaceOnUse">
<stop stop-color="#212121"/>
<stop offset="1" stop-color="#253F47"/>
</linearGradient>
<linearGradient id="paint2_linear_1122_1246" x1="61.3145" y1="362.289" x2="344.463" y2="375.063" gradientUnits="userSpaceOnUse">
<stop stop-color="white" stop-opacity="0.43"/>
<stop offset="0.846595" stop-color="white" stop-opacity="0.44"/>
<stop offset="1" stop-color="white" stop-opacity="0"/>
</linearGradient>
<linearGradient id="paint3_linear_1122_1246" x1="211.635" y1="0" x2="242.628" y2="465.681" gradientUnits="userSpaceOnUse">
<stop stop-color="#171414"/>
<stop offset="1" stop-color="#151A1D"/>
</linearGradient>
<linearGradient id="paint4_linear_1122_1246" x1="51.0865" y1="185.427" x2="244.314" y2="368.278" gradientUnits="userSpaceOnUse">
<stop stop-color="white" stop-opacity="0.09"/>
<stop offset="0.846595" stop-color="white" stop-opacity="0.79"/>
<stop offset="1" stop-color="white" stop-opacity="0.17"/>
</linearGradient>
<linearGradient id="paint5_linear_1122_1246" x1="379.712" y1="146.031" x2="522.924" y2="445.11" gradientUnits="userSpaceOnUse">
<stop/>
<stop offset="1" stop-color="#233A44"/>
</linearGradient>
<linearGradient id="paint6_linear_1122_1246" x1="296.062" y1="445.184" x2="417.102" y2="566.562" gradientUnits="userSpaceOnUse">
<stop stop-color="white" stop-opacity="0.43"/>
<stop offset="0.846595" stop-color="white" stop-opacity="0.44"/>
<stop offset="1" stop-color="white" stop-opacity="0"/>
</linearGradient>
<linearGradient id="paint7_linear_1122_1246" x1="359.598" y1="108.027" x2="605.761" y2="422.869" gradientUnits="userSpaceOnUse">
<stop stop-color="white"/>
<stop offset="0.372175" stop-color="white"/>
<stop offset="0.414721" stop-color="#E7EDEF" stop-opacity="0.82"/>
<stop offset="0.477026" stop-color="#F3F9FB" stop-opacity="0.82"/>
<stop offset="0.690995" stop-color="white" stop-opacity="0.9"/>
<stop offset="1" stop-color="white" stop-opacity="0.9"/>
</linearGradient>
<linearGradient id="paint8_linear_1122_1246" x1="359.598" y1="108.027" x2="605.761" y2="422.869" gradientUnits="userSpaceOnUse">
<stop stop-color="white"/>
<stop offset="0.372175" stop-color="white"/>
<stop offset="0.414721" stop-color="#E7EDEF" stop-opacity="0.82"/>
<stop offset="0.477026" stop-color="#F3F9FB" stop-opacity="0.82"/>
<stop offset="0.690995" stop-color="white" stop-opacity="0.9"/>
<stop offset="1" stop-color="white" stop-opacity="0.9"/>
</linearGradient>
<linearGradient id="paint9_linear_1122_1246" x1="359.598" y1="108.027" x2="605.761" y2="422.869" gradientUnits="userSpaceOnUse">
<stop stop-color="white"/>
<stop offset="0.372175" stop-color="white"/>
<stop offset="0.414721" stop-color="#E7EDEF" stop-opacity="0.82"/>
<stop offset="0.477026" stop-color="#F3F9FB" stop-opacity="0.82"/>
<stop offset="0.690995" stop-color="white" stop-opacity="0.9"/>
<stop offset="1" stop-color="white" stop-opacity="0.9"/>
</linearGradient>
<linearGradient id="paint10_linear_1122_1246" x1="182.647" y1="289.781" x2="267.458" y2="465.521" gradientUnits="userSpaceOnUse">
<stop stop-color="white" stop-opacity="0.09"/>
<stop offset="0.846595" stop-color="white" stop-opacity="0.79"/>
<stop offset="1" stop-color="white" stop-opacity="0.17"/>
</linearGradient>
</defs>
</svg>
