<svg xmlns="http://www.w3.org/2000/svg" version="1.1" xmlns:xlink="http://www.w3.org/1999/xlink" xmlns:svgjs="http://svgjs.dev/svgjs" width="1500" height="500" viewBox="0 0 1500 500"><g transform="matrix(1,0,0,1,-0.9090909090909918,-0.8667943025945419)"><svg viewBox="0 0 396 132" data-background-color="#f2f0e4" preserveAspectRatio="xMidYMid meet" height="500" width="1500" xmlns="http://www.w3.org/2000/svg" xmlns:xlink="http://www.w3.org/1999/xlink"><g id="tight-bounds" transform="matrix(1,0,0,1,0.2400000000000091,0.2288336958849584)"><svg viewBox="0 0 395.52 131.5423326082301" height="131.5423326082301" width="395.52"><g><svg viewBox="0 0 661.5006151205134 220.00236128320034" height="131.5423326082301" width="395.52"><g transform="matrix(1,0,0,1,265.98061512051345,61.31108313347449)"><svg viewBox="0 0 395.52 97.38019501625136" height="97.38019501625136" width="395.52"><g id="textblocktransform"><svg viewBox="0 0 395.52 97.38019501625136" height="97.38019501625136" width="395.52" id="textblock"><g><svg viewBox="0 0 395.52 97.38019501625136" height="97.38019501625136" width="395.52"><g transform="matrix(1,0,0,1,0,0)"><svg width="395.52" viewBox="0.75 -34.8 184.58 45.449999999999996" height="97.38019501625136" data-palette-color="#a7a7a7"><path d="M31.4-0.85L24.2 0.25 21.75-9.5 9.8-9.5 7.15 0 0.75-0.5 5.15-12.65 11.85-34.15 20.8-34.8 27.25-13.4 31.4-0.85ZM20.25-14.8L16.3-28.3 15.65-28.3 11.35-14.8 20.25-14.8ZM48.4-25.25L48.4-25.25Q51.6-25.25 53.77-22.45 55.95-19.65 55.95-14.9L55.95-14.9Q55.95-8.25 52.52-4.13 49.1 0 44 0L44 0Q42.95 0 41.65-0.15L41.65-0.15 41.9 9.4 35.05 10.65 35.7-12.15 35.75-12.15Q35.55-18.85 34.65-24.15L34.65-24.15 40.7-25.45Q41-22.8 41.2-20.2L41.2-20.2Q41.3-20.45 42.22-21.58 43.15-22.7 44.95-23.98 46.75-25.25 48.4-25.25ZM46.45-18.75L46.45-18.75Q43.8-18.75 41.3-17.3L41.3-17.3 41.3-13 41.5-5.85Q44.2-5.4 45.6-5.4L45.6-5.4Q50.4-5.4 50.4-12.08 50.4-18.75 46.45-18.75ZM59.15-24.2L62.05-24.2 62.05-29.65 68.8-30.95 68.15-24.2 74.2-24.2 73.65-20.1 67.95-20.1 67.7-9.65Q67.7-7.3 68.15-6.53 68.6-5.75 69.8-5.75 71-5.75 73-6.3L73-6.3 73.3-2.75Q70 0 67.5 0 65 0 63.4-1.83 61.8-3.65 61.8-6.6L61.8-6.6 62.1-12.2 62.05-20.1 58.6-20.1 59.15-24.2ZM76.34-10.45Q76.34-16.85 79.79-21.3 83.24-25.75 87.87-25.75 92.49-25.75 95.07-22.75 97.64-19.75 97.64-14.8L97.64-14.8Q97.64-8.2 94.32-3.83 90.99 0.55 85.94 0.55L85.94 0.55Q81.79 0.55 79.07-2.58 76.34-5.7 76.34-10.45L76.34-10.45ZM92.04-12.2L92.04-12.2Q92.04-19.45 87.09-19.45L87.09-19.45Q81.94-19.45 81.94-12.65L81.94-12.65Q81.94-9.1 83.39-7.1 84.84-5.1 87.22-5.1 89.59-5.1 90.82-6.93 92.04-8.75 92.04-12.2ZM110.94-5.1L110.94-5.1Q112.39-5.1 113.99-5.85 115.59-6.6 116.49-7.35L116.49-7.35 117.39-8.1 119.69-5.3Q119.19-4.45 118.14-3.35 117.09-2.25 116.02-1.48 114.94-0.7 113.17-0.08 111.39 0.55 109.49 0.55L109.49 0.55Q105.44 0.55 102.89-2.53 100.34-5.6 100.34-10.45L100.34-10.45Q100.34-16.55 103.89-21.15 107.44-25.75 112.19-25.75L112.19-25.75Q115.84-25.75 117.87-23.7 119.89-21.65 119.89-17.95L119.89-17.95Q119.89-15.75 119.14-12.95L119.14-12.95 118.14-11.9 105.64-10.75Q106.49-5.1 110.94-5.1ZM110.94-20.6L110.94-20.6Q108.74-20.6 107.24-18.82 105.74-17.05 105.49-14.3L105.49-14.3 113.99-15.35Q114.14-16.5 114.14-17.25L114.14-17.25Q114.14-20.6 110.94-20.6ZM129.24 0Q126.29 0 124.41-1.88 122.54-3.75 122.54-6.93 122.54-10.1 125.44-12.43 128.34-14.75 132.49-14.75L132.49-14.75 135.89-14.75 135.89-15.6Q135.89-18.05 134.89-18.95 133.89-19.85 131.14-19.85L131.14-19.85Q129.99-19.85 128.41-19.38 126.84-18.9 124.89-17.9L124.89-17.9 123.44-21.85Q125.59-23.35 128.66-24.55 131.74-25.75 133.74-25.75L133.74-25.75Q141.59-25.75 141.59-18.15L141.59-18.15 141.59-8.35Q141.59-5.55 143.34-2.1L143.34-2.1 138.04 0.15Q136.79-2.25 136.19-4.15L136.19-4.15Q133.44 0 129.24 0L129.24 0ZM131.34-5.1L131.34-5.1Q133.34-5.1 135.89-7.15L135.89-7.15 135.89-10.5Q133.24-11.1 131.59-11.1L131.59-11.1Q128.44-11.1 128.44-8.3L128.44-8.3Q128.44-6.85 129.24-5.98 130.04-5.1 131.34-5.1ZM155.24-4.65L155.24-4.65Q157.84-4.65 157.84-6.95L157.84-6.95Q157.84-7.75 156.71-8.45 155.59-9.15 153.96-9.85 152.34-10.55 150.71-11.43 149.09-12.3 147.96-13.85 146.84-15.4 146.84-17.4L146.84-17.4Q146.84-20.75 149.79-23.25 152.74-25.75 156.59-25.75L156.59-25.75Q158.39-25.75 160.11-25.33 161.84-24.9 163.44-24L163.44-24 160.09-17.9Q159.74-18.2 159.19-18.65 158.64-19.1 157.11-19.83 155.59-20.55 154.41-20.55 153.24-20.55 152.61-20.03 151.99-19.5 151.99-18.57 151.99-17.65 153.71-16.73 155.44-15.8 157.49-15.03 159.54-14.25 161.26-12.48 162.99-10.7 162.99-8.25L162.99-8.25Q162.99-4.75 160.11-2.1 157.24 0.55 153.49 0.55L153.49 0.55Q151.09 0.55 149.01-0.5 146.94-1.55 146.04-2.6L146.04-2.6 145.14-3.65 149.09-8.25Q149.39-7.85 149.94-7.25 150.49-6.65 152.11-5.65 153.74-4.65 155.24-4.65ZM176.38-5.1L176.38-5.1Q177.83-5.1 179.43-5.85 181.03-6.6 181.93-7.35L181.93-7.35 182.83-8.1 185.13-5.3Q184.63-4.45 183.58-3.35 182.53-2.25 181.46-1.48 180.38-0.7 178.61-0.08 176.83 0.55 174.93 0.55L174.93 0.55Q170.88 0.55 168.33-2.53 165.78-5.6 165.78-10.45L165.78-10.45Q165.78-16.55 169.33-21.15 172.88-25.75 177.63-25.75L177.63-25.75Q181.28-25.75 183.31-23.7 185.33-21.65 185.33-17.95L185.33-17.95Q185.33-15.75 184.58-12.95L184.58-12.95 183.58-11.9 171.08-10.75Q171.93-5.1 176.38-5.1ZM176.38-20.6L176.38-20.6Q174.18-20.6 172.68-18.82 171.18-17.05 170.93-14.3L170.93-14.3 179.43-15.35Q179.58-16.5 179.58-17.25L179.58-17.25Q179.58-20.6 176.38-20.6Z" opacity="1" transform="matrix(1,0,0,1,0,0)" fill="#a7a7a7" class="wordmark-text-0" data-fill-palette-color="primary" id="text-0"></path></svg></g></svg></g></svg></g></svg></g><g><svg viewBox="0 0 220.00236128320034 220.00236128320034" height="220.00236128320034" width="220.00236128320034"><g><svg></svg></g><g id="icon-0"><svg viewBox="0 0 220.00236128320034 220.00236128320034" height="220.00236128320034" width="220.00236128320034"><g><path d="M0 110.001c0-60.752 49.249-110.001 110.001-110.001 60.752 0 110.001 49.249 110.001 110.001 0 60.752-49.249 110.001-110.001 110.001-60.752 0-110.001-49.249-110.001-110.001zM110.001 211.221c55.902 0 101.219-45.317 101.22-101.22 0-55.902-45.317-101.219-101.22-101.219-55.902 0-101.219 45.317-101.219 101.219 0 55.902 45.317 101.219 101.219 101.22z" data-fill-palette-color="accent" fill="#a6a6a6" stroke="transparent"></path></g><g transform="matrix(1,0,0,1,48.88080433514308,46.81099807206163)"><svg viewBox="0 0 122.24075261291418 126.38036513907709" height="126.38036513907709" width="122.24075261291418"><g><svg xmlns="http://www.w3.org/2000/svg" xmlns:xlink="http://www.w3.org/1999/xlink" version="1.1" x="0" y="0" viewBox="1.5274706178553634 0 96.19152938214465 99.44900000000001" enable-background="new 0 0 100 100" xml:space="preserve" height="126.38036513907709" width="122.24075261291418" class="icon-cg-0" data-fill-palette-color="accent" id="cg-0"><path fill-rule="evenodd" clip-rule="evenodd" d="M71.567 15.476L59.975 0 19.417 29.243H35.77L71.567 15.476zM82.479 29.243l-4.625-12.508L43.142 29.243H82.479zM84.913 27.716h6.64c1.899 0 3.121 1.48 3.121 3.373v21.198l2.992-1.495-0.03-21.297c0-1.9-2.656-4.831-4.556-4.831h-9.379l1.06 2.854L84.913 27.716zM94.674 76.706v17.43c1.732-0.184 3.045-1.739 3.045-3.518l-0.023-15.423L94.674 76.706zM7.939 27.716h0.435 8.349l4.258-3.052h-9.966l0.069-0.023c-7.372-0.007-9.624 0.077-9.555 9.249v62.04c0 1.901 1.893 3.519 3.793 3.519h83.179c1.899 0 3.808-1.565 3.808-3.457l-0.007-16.566-0.367 0.183h-7.631c-6.746 0-12.211-5.464-12.211-12.21s5.465-12.209 12.211-12.209h7.631l0.358-0.184-0.008-20.788c0-1.9-1.885-3.449-3.784-3.449H11.008c-0.275-0.007-0.528-0.023-0.756-0.061H8.374c-0.839 0-1.526-0.688-1.526-1.526C6.848 28.486 7.306 27.899 7.939 27.716zM91.935 58.24h-7.631c-5.061 0-9.158 4.098-9.158 9.157 0 5.059 4.098 9.157 9.158 9.157h7.631l5.738-4.815L97.65 53.547 91.935 58.24zM79.725 67.397c0-2.525 2.053-4.577 4.579-4.577 2.525 0 4.578 2.052 4.578 4.577 0 2.526-2.053 4.579-4.578 4.579C81.777 71.977 79.725 69.924 79.725 67.397z" fill="#a6a6a6" data-fill-palette-color="accent"></path></svg></g></svg></g></svg></g></svg></g></svg></g><defs></defs></svg><rect width="395.52" height="131.5423326082301" fill="none" stroke="none" visibility="hidden"></rect></g></svg></g></svg>